<svg width="288" height="189" fill="none" xmlns="http://www.w3.org/2000/svg"><path d="M26.4 141.96c-7.2 0-12.32-1.52-15.36-4.56C8 134.28 6.32 129.16 6 122.04c-.08-2.8-.12-5.52-.12-8.16.08-2.64.24-5.4.48-8.28H18.6c-.16 3.28-.28 6.52-.36 9.72 0 3.2.12 6.2.36 9 .16 2.4.84 4.16 2.04 5.28 1.28 1.12 3.2 1.68 5.76 1.68 2.48 0 4.28-.56 5.4-1.68 1.2-1.12 1.88-2.88 2.04-5.28.24-2.72.32-5.16.24-7.32 0-2.24-.08-4.84-.24-7.8-.16-2.32-.64-4.32-1.44-6-.8-1.68-2.24-2.8-4.32-3.36l-8.04-2.04c-5.44-1.36-9.16-3.72-11.16-7.08S5.8 82.8 5.64 77.04v-6.6c0-2.24.04-4.44.12-6.6.24-7.12 1.88-12.2 4.92-15.24 3.12-3.04 8.36-4.56 15.72-4.56 6.88 0 11.88 1.52 15 4.56 3.12 3.04 4.8 8.12 5.04 15.24.08 2 .08 4.44 0 7.32 0 2.8-.04 5.64-.12 8.52H33.84c.08-3.04.12-6.04.12-9 .08-3.04.04-6.08-.12-9.12-.16-4.56-2.68-6.84-7.56-6.84-2.48 0-4.32.56-5.52 1.68-1.2 1.12-1.88 2.84-2.04 5.16-.24 2.56-.36 5.16-.36 7.8.08 2.56.2 5.12.36 7.68.16 2.64.64 4.72 1.44 6.24.88 1.52 2.44 2.56 4.68 3.12l7.2 1.68c5.68 1.36 9.52 3.8 11.52 7.32 2 3.44 3.12 8.04 3.36 13.8.08 2.56.08 4.76 0 6.6 0 1.84-.04 3.92-.12 6.24-.24 7.12-1.92 12.24-5.04 15.36-3.12 3.04-8.24 4.56-15.36 4.56zm55.878-.96V45h22.2l6.48 37.8 3.12 46.56h2.64l2.88-46.56 6.6-37.8h22.08v96h-12.96v-29.04l2.28-55.44h-2.76l-6 56.52-5.64 27.72h-15.84l-5.52-27.72-6-56.52h-2.76l2.28 55.8V141h-13.08zm97.052.96c-7.2 0-12.32-1.52-15.36-4.56-3.04-3.12-4.72-8.24-5.04-15.36-.08-2.8-.12-5.52-.12-8.16.08-2.64.24-5.4.48-8.28h12.24c-.16 3.28-.28 6.52-.36 9.72 0 3.2.12 6.2.36 9 .16 2.4.84 4.16 2.04 5.28 1.28 1.12 3.2 1.68 5.76 1.68 2.48 0 4.28-.56 5.4-1.68 1.2-1.12 1.88-2.88 2.04-5.28.24-2.72.32-5.16.24-7.32 0-2.24-.08-4.84-.24-7.8-.16-2.32-.64-4.32-1.44-6-.8-1.68-2.24-2.8-4.32-3.36l-8.04-2.04c-5.44-1.36-9.16-3.72-11.16-7.08s-3.08-7.92-3.24-13.68v-6.6c0-2.24.04-4.44.12-6.6.24-7.12 1.88-12.2 4.92-15.24 3.12-3.04 8.36-4.56 15.72-4.56 6.88 0 11.88 1.52 15 4.56 3.12 3.04 4.8 8.12 5.04 15.24.08 2 .08 4.44 0 7.32 0 2.8-.04 5.64-.12 8.52h-12.48c.08-3.04.12-6.04.12-9 .08-3.04.04-6.08-.12-9.12-.16-4.56-2.68-6.84-7.56-6.84-2.48 0-4.32.56-5.52 1.68-1.2 1.12-1.88 2.84-2.04 5.16-.24 2.56-.36 5.16-.36 7.8.08 2.56.2 5.12.36 7.68.16 2.64.64 4.72 1.44 6.24.88 1.52 2.44 2.56 4.68 3.12l7.2 1.68c5.68 1.36 9.52 3.8 11.52 7.32 2 3.44 3.12 8.04 3.36 13.8.08 2.56.08 4.76 0 6.6 0 1.84-.04 3.92-.12 6.24-.24 7.12-1.92 12.24-5.04 15.36-3.12 3.04-8.24 4.56-15.36 4.56z" fill="#3A3A3A"/><path d="M58.137 141V45h13.08v96h-13.08z" fill="#DA5959"/><path d="M9.081 162v-8.877h6.003V162h-1.837v-7.638h-2.329V162H9.081zm8.165-8.877h1.688v1.459c.462-1.072 1.195-1.608 2.197-1.608.896 0 1.62.392 2.17 1.177.552.78.827 1.893.827 3.34 0 1.295-.252 2.397-.756 3.305-.498.908-1.274 1.362-2.329 1.362-.844 0-1.503-.36-1.978-1.081v3.929h-1.819v-11.883zm1.82 5.168c0 .568.04 1.014.123 1.336.087.316.263.589.527.817.264.223.562.334.896.334 1.043 0 1.565-1.095 1.565-3.287 0-2.121-.51-3.181-1.53-3.181-.45 0-.829.216-1.133.65-.3.434-.449 1.052-.449 1.854v1.477zm13.332-.817c0 3.164-1.171 4.746-3.515 4.746-1.078 0-1.928-.381-2.549-1.143-.615-.767-.923-1.939-.923-3.515 0-3.1 1.172-4.65 3.516-4.65 1.066 0 1.91.378 2.531 1.134.627.756.94 1.898.94 3.428zm-1.942.088c0-1.249-.14-2.104-.422-2.567-.275-.469-.65-.703-1.125-.703-1.031 0-1.547 1.09-1.547 3.27 0 1.113.12 1.936.36 2.469.24.533.636.8 1.187.8.545 0 .938-.269 1.178-.809.246-.544.37-1.365.37-2.46zm9.826-1.451l-1.766.194c-.088-.774-.238-1.289-.449-1.547-.21-.264-.51-.396-.896-.396-.545 0-.94.252-1.187.756-.246.498-.369 1.377-.369 2.637 0 1.969.519 2.953 1.556 2.953.797 0 1.245-.642 1.345-1.925l1.766.158c-.24 2.186-1.321 3.279-3.243 3.279-1.137 0-1.98-.41-2.531-1.231-.545-.82-.818-1.954-.818-3.401 0-1.524.296-2.684.888-3.481.592-.796 1.453-1.195 2.584-1.195 1.822 0 2.862 1.067 3.12 3.199zM42.655 162v-7.497h-2.03v-1.38h5.836v1.38h-1.969V162h-1.837zm4.746 0v-8.877h1.837v3.393h1.934c.89 0 1.518.272 1.88.817.37.545.554 1.189.554 1.934 0 1.822-.852 2.733-2.557 2.733H47.4zm1.837-1.389h1.486c.72 0 1.08-.465 1.08-1.397 0-.973-.36-1.459-1.08-1.459h-1.486v2.856zM54.345 162v-8.877h1.837V162h-1.837zm10.459-4.166h-5.019c0 1.201.161 2.004.484 2.408.328.399.738.598 1.23.598.82 0 1.339-.554 1.556-1.661l1.67.219c-.44 1.881-1.535 2.822-3.287 2.822-1.073 0-1.928-.384-2.567-1.152-.639-.767-.958-1.892-.958-3.375 0-1.523.322-2.701.967-3.533.644-.832 1.506-1.248 2.584-1.248.756 0 1.392.208 1.907.624.516.416.879.964 1.09 1.644.21.674.325 1.558.343 2.654zm-1.872-1.239c0-1.565-.51-2.347-1.53-2.347-.955 0-1.48.782-1.573 2.347h3.103zm6.75-3.472h1.687v1.459c.463-1.072 1.195-1.608 2.197-1.608.897 0 1.62.392 2.171 1.177.551.78.827 1.893.827 3.34 0 1.295-.252 2.397-.756 3.305-.498.908-1.275 1.362-2.33 1.362-.843 0-1.502-.36-1.977-1.081v3.929h-1.82v-11.883zm1.819 5.168c0 .568.041 1.014.123 1.336.088.316.264.589.527.817.264.223.563.334.897.334 1.043 0 1.564-1.095 1.564-3.287 0-2.121-.51-3.181-1.529-3.181-.451 0-.83.216-1.134.65-.299.434-.448 1.052-.448 1.854v1.477zm13.236-.457H79.72c0 1.201.16 2.004.483 2.408.328.399.738.598 1.23.598.82 0 1.34-.554 1.556-1.661l1.67.219c-.44 1.881-1.535 2.822-3.287 2.822-1.072 0-1.928-.384-2.566-1.152-.639-.767-.958-1.892-.958-3.375 0-1.523.322-2.701.967-3.533.644-.832 1.505-1.248 2.584-1.248.755 0 1.391.208 1.907.624.515.416.879.964 1.09 1.644.21.674.325 1.558.342 2.654zm-1.872-1.239c0-1.565-.51-2.347-1.53-2.347-.954 0-1.479.782-1.572 2.347h3.102zM86.267 162v-8.877h1.837v7.488h2.188v-7.488h1.837v7.488h2.188v-7.488h1.837V162h-9.887zm18.509-4.166h-5.018c0 1.201.16 2.004.483 2.408.328.399.738.598 1.231.598.82 0 1.339-.554 1.555-1.661l1.67.219c-.439 1.881-1.535 2.822-3.287 2.822-1.072 0-1.928-.384-2.566-1.152-.639-.767-.958-1.892-.958-3.375 0-1.523.322-2.701.967-3.533.644-.832 1.505-1.248 2.584-1.248.755 0 1.391.208 1.907.624.515.416.879.964 1.09 1.644.211.674.325 1.558.342 2.654zm-1.872-1.239c0-1.565-.509-2.347-1.529-2.347-.955 0-1.48.782-1.573 2.347h3.102zm3.402 5.405v-8.877h1.837v3.524h2.654v-3.524h1.837V162h-1.837v-3.973h-2.654V162h-1.837zm10.327-.905V162h-1.837v-8.877h1.837v3.85c0 .943-.021 1.555-.062 1.837.258-.557.569-1.125.932-1.706l1.802-2.83v-1.151h1.837V162h-1.837v-3.63c0-.978.02-1.591.061-1.837a11.282 11.282 0 01-1.028 1.951l-1.705 2.611zm10.635.905v-3.542h-1.609L124.314 162h-1.863l1.723-3.92c-.891-.416-1.336-1.151-1.336-2.206 0-.797.182-1.453.545-1.969.363-.521 1.098-.782 2.206-.782h3.515V162h-1.836zm0-4.781v-2.857h-1.372c-.439 0-.758.117-.958.352-.199.234-.298.615-.298 1.142 0 .399.088.727.263.985.182.252.554.378 1.117.378h1.248zm7.321 3.392l1.793-7.488h2.733l1.609 7.488h.659v3.463h-1.222l-.22-2.074h-4.57l-.22 2.074h-1.221v-3.463h.659zm1.608 0h2.699l-1.196-6.055h-.246l-1.257 6.055zm5.089 1.389l2.461-8.877h2.127l2.285 8.877h-1.925l-1.573-7.084L142.93 162h-1.644zm11.716 0v-3.542h-1.608L150.049 162h-1.863l1.722-3.92c-.89-.416-1.336-1.151-1.336-2.206 0-.797.182-1.453.545-1.969.363-.521 1.099-.782 2.206-.782h3.516V162h-1.837zm0-4.781v-2.857h-1.371c-.44 0-.759.117-.958.352-.199.234-.299.615-.299 1.142 0 .399.088.727.264.985.181.252.553.378 1.116.378h1.248zm7.321 3.392l1.793-7.488h2.734l1.608 7.488h.659v3.463h-1.221l-.22-2.074h-4.571l-.219 2.074h-1.222v-3.463h.659zm1.609 0h2.698l-1.195-6.055h-.247l-1.256 6.055zm12.937-3.137c0 3.164-1.172 4.746-3.515 4.746-1.079 0-1.928-.381-2.549-1.143-.616-.767-.923-1.939-.923-3.515 0-3.1 1.172-4.65 3.515-4.65 1.067 0 1.911.378 2.532 1.134.627.756.94 1.898.94 3.428zm-1.942.088c0-1.249-.141-2.104-.422-2.567-.276-.469-.651-.703-1.125-.703-1.031 0-1.547 1.09-1.547 3.27 0 1.113.12 1.936.36 2.469.241.533.636.8 1.187.8.545 0 .937-.269 1.178-.809.246-.544.369-1.365.369-2.46zm3.638 4.438v-8.877h2.672l1.864 7.444 1.81-7.444h2.505V162h-1.67v-7.251L181.821 162h-1.881l-1.889-7.251V162h-1.486zm12.648-6.363l-1.767-.22c.117-.791.481-1.406 1.09-1.846.615-.439 1.368-.659 2.259-.659.797 0 1.433.161 1.907.484.481.316.782.694.905 1.133.123.44.185 1.105.185 1.995v3.024c0 1.224.053 2.042.158 2.452h-1.731c-.076-.322-.115-.814-.115-1.477-.556 1.131-1.388 1.697-2.496 1.697-.75 0-1.353-.229-1.81-.686-.451-.463-.677-1.09-.677-1.881 0-.966.331-1.731.993-2.294.668-.562 1.823-.843 3.463-.843.082 0 .211.003.387.008v-.36c0-.633-.097-1.11-.29-1.433-.188-.322-.528-.483-1.02-.483-.802 0-1.283.463-1.441 1.389zm2.751 2.039a5.634 5.634 0 00-.536-.035c-1.594 0-2.391.624-2.391 1.872 0 .908.396 1.362 1.187 1.362.463 0 .867-.246 1.213-.738.351-.492.527-1.169.527-2.031v-.43z" fill="#C1C1C1"/></svg>