<svg width="131" height="66" fill="none" xmlns="http://www.w3.org/2000/svg"><path d="M14.6 65.64c-4.8 0-8.213-1.013-10.24-3.04C2.333 60.52 1.213 57.107 1 52.36c-.053-1.867-.08-3.68-.08-5.44.053-1.76.16-3.6.32-5.52H9.4a273.07 273.07 0 00-.24 6.48c0 2.133.08 4.133.24 6 .107 1.6.56 2.773 1.36 3.52.853.747 2.133 1.12 3.84 1.12 1.653 0 2.853-.373 3.6-1.12.8-.747 1.253-1.92 1.36-3.52.16-1.813.213-3.44.16-4.88 0-1.493-.053-3.227-.16-5.2-.107-1.547-.427-2.88-.96-4-.533-1.12-1.493-1.867-2.88-2.24l-5.36-1.36c-3.627-.907-6.107-2.48-7.44-4.72C1.587 29.24.867 26.2.76 22.36v-4.4c0-1.493.027-2.96.08-4.4C1 8.813 2.093 5.427 4.12 3.4 6.2 1.373 9.693.36 14.6.36c4.587 0 7.92 1.013 10 3.04s3.2 5.413 3.36 10.16c.053 1.333.053 2.96 0 4.88 0 1.867-.027 3.76-.08 5.68h-8.32c.053-2.027.08-4.027.08-6a77.063 77.063 0 00-.08-6.08c-.107-3.04-1.787-4.56-5.04-4.56-1.653 0-2.88.373-3.68 1.12-.8.747-1.253 1.893-1.36 3.44a55.69 55.69 0 00-.24 5.2c.053 1.707.133 3.413.24 5.12.107 1.76.427 3.147.96 4.16.587 1.013 1.627 1.707 3.12 2.08l4.8 1.12c3.787.907 6.347 2.533 7.68 4.88 1.333 2.293 2.08 5.36 2.24 9.2.053 1.707.053 3.173 0 4.4 0 1.227-.027 2.613-.08 4.16-.16 4.747-1.28 8.16-3.36 10.24-2.08 2.027-5.493 3.04-10.24 3.04zM51.852 65V1h14.8l4.32 25.2 2.08 31.04h1.76l1.92-31.04 4.4-25.2h14.72v64h-8.64V45.64l1.52-36.96h-1.84l-4 37.68-3.76 18.48h-10.56l-3.68-18.48-4-37.68h-1.84l1.52 37.2V65h-8.72zm64.701.64c-4.8 0-8.213-1.013-10.24-3.04-2.027-2.08-3.147-5.493-3.36-10.24-.053-1.867-.08-3.68-.08-5.44.053-1.76.16-3.6.32-5.52h8.16a269.607 269.607 0 00-.24 6.48c0 2.133.08 4.133.24 6 .107 1.6.56 2.773 1.36 3.52.853.747 2.133 1.12 3.84 1.12 1.653 0 2.853-.373 3.6-1.12.8-.747 1.253-1.92 1.36-3.52.16-1.813.213-3.44.16-4.88 0-1.493-.053-3.227-.16-5.2-.107-1.547-.427-2.88-.96-4-.533-1.12-1.493-1.867-2.88-2.24l-5.36-1.36c-3.627-.907-6.107-2.48-7.44-4.72-1.333-2.24-2.053-5.28-2.16-9.12v-4.4c0-1.493.027-2.96.08-4.4.16-4.747 1.253-8.133 3.28-10.16 2.08-2.027 5.573-3.04 10.48-3.04 4.587 0 7.92 1.013 10 3.04s3.2 5.413 3.36 10.16c.053 1.333.053 2.96 0 4.88 0 1.867-.027 3.76-.08 5.68h-8.32c.053-2.027.08-4.027.08-6a77.063 77.063 0 00-.08-6.08c-.107-3.04-1.787-4.56-5.04-4.56-1.653 0-2.88.373-3.68 1.12-.8.747-1.253 1.893-1.36 3.44a55.69 55.69 0 00-.24 5.2c.053 1.707.133 3.413.24 5.12.107 1.76.427 3.147.96 4.16.587 1.013 1.627 1.707 3.12 2.08l4.8 1.12c3.787.907 6.347 2.533 7.68 4.88 1.333 2.293 2.08 5.36 2.24 9.2.053 1.707.053 3.173 0 4.4 0 1.227-.027 2.613-.08 4.16-.16 4.747-1.28 8.16-3.36 10.24-2.08 2.027-5.493 3.04-10.24 3.04z" fill="#3A3A3A"/><path d="M35.758 65V1h8.72v64h-8.72z" fill="#DA5959"/></svg>