<svg width="138" height="99" fill="none" xmlns="http://www.w3.org/2000/svg"><path d="M17.6 79.64c-4.8 0-8.213-1.013-10.24-3.04C5.333 74.52 4.213 71.107 4 66.36c-.053-1.867-.08-3.68-.08-5.44.053-1.76.16-3.6.32-5.52h8.16a272.752 272.752 0 00-.24 6.48c0 2.133.08 4.133.24 6 .107 1.6.56 2.773 1.36 3.52.853.747 2.133 1.12 3.84 1.12 1.653 0 2.853-.373 3.6-1.12.8-.747 1.253-1.92 1.36-3.52.16-1.813.213-3.44.16-4.88 0-1.493-.053-3.227-.16-5.2-.107-1.547-.427-2.88-.96-4-.533-1.12-1.493-1.867-2.88-2.24l-5.36-1.36c-3.627-.907-6.107-2.48-7.44-4.72-1.333-2.24-2.053-5.28-2.16-9.12v-4.4c0-1.493.027-2.96.08-4.4.16-4.747 1.253-8.133 3.28-10.16 2.08-2.027 5.573-3.04 10.48-3.04 4.587 0 7.92 1.013 10 3.04s3.2 5.413 3.36 10.16c.053 1.333.053 2.96 0 4.88 0 1.867-.027 3.76-.08 5.68h-8.32c.053-2.027.08-4.027.08-6a77.063 77.063 0 00-.08-6.08c-.107-3.04-1.787-4.56-5.04-4.56-1.653 0-2.88.373-3.68 1.12-.8.747-1.253 1.893-1.36 3.44a55.69 55.69 0 00-.24 5.2c.053 1.707.133 3.413.24 5.12.107 1.76.427 3.147.96 4.16.587 1.013 1.627 1.707 3.12 2.08l4.8 1.12c3.787.907 6.347 2.533 7.68 4.88 1.333 2.293 2.08 5.36 2.24 9.2.053 1.707.053 3.173 0 4.4 0 1.227-.027 2.613-.08 4.16-.16 4.747-1.28 8.16-3.36 10.24-2.08 2.027-5.493 3.04-10.24 3.04zM54.852 79V15h14.8l4.32 25.2 2.08 31.04h1.76l1.92-31.04 4.4-25.2h14.72v64h-8.64V59.64l1.52-36.96h-1.84l-4 37.68-3.76 18.48h-10.56l-3.68-18.48-4-37.68h-1.84l1.52 37.2V79h-8.72zm64.701.64c-4.8 0-8.213-1.013-10.24-3.04-2.027-2.08-3.147-5.493-3.36-10.24-.053-1.867-.08-3.68-.08-5.44.053-1.76.16-3.6.32-5.52h8.16a269.607 269.607 0 00-.24 6.48c0 2.133.08 4.133.24 6 .107 1.6.56 2.773 1.36 3.52.853.747 2.133 1.12 3.84 1.12 1.653 0 2.853-.373 3.6-1.12.8-.747 1.253-1.92 1.36-3.52.16-1.813.213-3.44.16-4.88 0-1.493-.053-3.227-.16-5.2-.107-1.547-.427-2.88-.96-4-.533-1.12-1.493-1.867-2.88-2.24l-5.36-1.36c-3.627-.907-6.107-2.48-7.44-4.72-1.333-2.24-2.053-5.28-2.16-9.12v-4.4c0-1.493.027-2.96.08-4.4.16-4.747 1.253-8.133 3.28-10.16 2.08-2.027 5.573-3.04 10.48-3.04 4.587 0 7.92 1.013 10 3.04s3.2 5.413 3.36 10.16c.053 1.333.053 2.96 0 4.88 0 1.867-.027 3.76-.08 5.68h-8.32c.053-2.027.08-4.027.08-6a77.063 77.063 0 00-.08-6.08c-.107-3.04-1.787-4.56-5.04-4.56-1.653 0-2.88.373-3.68 1.12-.8.747-1.253 1.893-1.36 3.44a55.69 55.69 0 00-.24 5.2c.053 1.707.133 3.413.24 5.12.107 1.76.427 3.147.96 4.16.587 1.013 1.627 1.707 3.12 2.08l4.8 1.12c3.787.907 6.347 2.533 7.68 4.88 1.333 2.293 2.08 5.36 2.24 9.2.053 1.707.053 3.173 0 4.4 0 1.227-.027 2.613-.08 4.16-.16 4.747-1.28 8.16-3.36 10.24-2.08 2.027-5.493 3.04-10.24 3.04z" fill="#3A3A3A"/><path d="M38.758 79V15h8.72v64h-8.72z" fill="#DA5959"/><path d="M4.72 96v-5.918h4.003V96H7.498v-5.092H5.945V96H4.721zm5.444-5.918h1.125v.973c.309-.715.797-1.073 1.465-1.073.598 0 1.08.262 1.447.786.367.52.551 1.261.551 2.226 0 .863-.168 1.598-.504 2.203-.332.606-.85.909-1.553.909-.562 0-1.002-.24-1.318-.721v2.619h-1.213v-7.922zm1.213 3.445c0 .38.027.676.082.891.059.21.176.392.351.545a.901.901 0 00.598.223c.696 0 1.043-.73 1.043-2.192 0-1.414-.34-2.121-1.02-2.121-.3 0-.552.145-.755.434-.2.289-.299.7-.299 1.236v.984zm8.889-.545c0 2.11-.782 3.165-2.344 3.165-.719 0-1.285-.254-1.7-.762-.41-.512-.615-1.293-.615-2.344 0-2.066.782-3.1 2.344-3.1.711 0 1.274.252 1.688.756.418.504.627 1.266.627 2.285zm-1.295.059c0-.832-.094-1.402-.282-1.71-.183-.313-.433-.47-.75-.47-.687 0-1.03.727-1.03 2.18 0 .742.08 1.291.24 1.647.16.355.423.533.79.533.364 0 .625-.18.786-.54.164-.363.246-.91.246-1.64zm6.55-.967l-1.177.13c-.059-.516-.159-.86-.3-1.032-.14-.176-.339-.264-.597-.264-.363 0-.627.168-.79.504-.165.332-.247.918-.247 1.758 0 1.312.346 1.969 1.037 1.969.532 0 .83-.428.897-1.283l1.177.105c-.16 1.457-.88 2.186-2.162 2.186-.757 0-1.32-.274-1.687-.82-.363-.548-.545-1.304-.545-2.268 0-1.016.197-1.79.592-2.32.394-.532.968-.798 1.722-.798 1.215 0 1.909.711 2.08 2.133zM27.104 96v-4.998H25.75v-.92h3.89v.92h-1.312V96h-1.224zm3.165 0v-5.918h1.224v2.262h1.29c.593 0 1.011.181 1.253.545.246.363.37.793.37 1.289 0 1.215-.57 1.822-1.706 1.822h-2.431zm1.224-.926h.99c.48 0 .721-.31.721-.931 0-.649-.24-.973-.72-.973h-.99v1.904zm3.405.926v-5.918h1.224V96h-1.224zm6.972-2.777h-3.346c0 .8.108 1.336.323 1.605.219.266.492.399.82.399.547 0 .893-.37 1.037-1.108l1.113.147c-.293 1.253-1.023 1.88-2.191 1.88-.715 0-1.285-.255-1.71-.767-.427-.512-.64-1.262-.64-2.25 0-1.016.215-1.8.645-2.356.43-.554 1.004-.832 1.723-.832.504 0 .927.14 1.271.416.344.278.586.643.727 1.096.14.45.216 1.04.228 1.77zm-1.248-.826c0-1.044-.34-1.565-1.02-1.565-.636 0-.986.522-1.048 1.565h2.068zm4.5-2.315h1.125v.973c.309-.715.797-1.073 1.465-1.073.598 0 1.08.262 1.447.786.367.52.551 1.261.551 2.226 0 .863-.168 1.598-.504 2.203-.332.606-.85.909-1.553.909-.562 0-1.002-.24-1.318-.721v2.619h-1.213v-7.922zm1.213 3.445c0 .38.027.676.082.891a1.1 1.1 0 00.352.545.901.901 0 00.597.223c.695 0 1.043-.73 1.043-2.192 0-1.414-.34-2.121-1.02-2.121-.3 0-.552.145-.755.434-.2.289-.299.7-.299 1.236v.984zm8.824-.304h-3.346c0 .8.108 1.336.323 1.605.218.266.492.399.82.399.547 0 .893-.37 1.037-1.108l1.114.147c-.294 1.253-1.024 1.88-2.192 1.88-.715 0-1.285-.255-1.71-.767-.427-.512-.64-1.262-.64-2.25 0-1.016.215-1.8.645-2.356.43-.554 1.004-.832 1.723-.832.503 0 .927.14 1.271.416.344.278.586.643.727 1.096.14.45.217 1.04.228 1.77zm-1.248-.826c0-1.044-.34-1.565-1.02-1.565-.636 0-.986.522-1.048 1.565h2.068zM56.178 96v-5.918h1.224v4.992h1.46v-4.992h1.224v4.992h1.459v-4.992h1.224V96h-6.591zm12.34-2.777h-3.346c0 .8.107 1.336.322 1.605.219.266.492.399.82.399.547 0 .893-.37 1.038-1.108l1.113.147c-.293 1.253-1.024 1.88-2.192 1.88-.714 0-1.285-.255-1.71-.767-.426-.512-.64-1.262-.64-2.25 0-1.016.216-1.8.645-2.356.43-.554 1.004-.832 1.723-.832.504 0 .928.14 1.272.416.343.278.585.643.726 1.096.14.45.217 1.04.229 1.77zm-1.249-.826c0-1.044-.34-1.565-1.019-1.565-.637 0-.986.522-1.049 1.565h2.069zM69.537 96v-5.918h1.225v2.35h1.77v-2.35h1.224V96H72.53v-2.648h-1.77V96h-1.224zm6.885-.603V96h-1.225v-5.918h1.225v2.566c0 .63-.014 1.038-.041 1.225.172-.371.379-.75.621-1.137l1.201-1.886v-.768h1.225V96h-1.225v-2.42c0-.652.014-1.06.041-1.224a7.492 7.492 0 01-.685 1.3l-1.137 1.74zm7.09.603v-2.361h-1.073L81.543 96h-1.242l1.148-2.613c-.593-.278-.89-.768-.89-1.471 0-.531.12-.969.363-1.313.242-.347.732-.521 1.47-.521h2.344V96h-1.224zm0-3.188v-1.904h-.914c-.293 0-.506.078-.639.235-.133.156-.2.41-.2.761 0 .266.06.485.177.657.12.167.369.251.744.251h.832zm4.88 2.262l1.196-4.992h1.822l1.072 4.992h.44v2.309h-.815L91.961 96h-3.047l-.146 1.383h-.815v-2.309h.44zm1.073 0h1.799l-.797-4.037h-.164l-.838 4.037zm3.392.926l1.641-5.918h1.418L97.439 96h-1.283l-1.049-4.723L93.953 96h-1.096zm7.811 0v-2.361h-1.072L98.699 96h-1.242l1.149-2.613c-.594-.278-.891-.768-.891-1.471 0-.531.12-.969.363-1.313.242-.347.733-.521 1.47-.521h2.345V96h-1.225zm0-3.188v-1.904h-.914c-.293 0-.506.078-.639.235-.133.156-.199.41-.199.761 0 .266.059.485.176.657.12.167.369.251.744.251h.832zm4.881 2.262l1.195-4.992h1.822l1.073 4.992h.439v2.309h-.814L109.117 96h-3.047l-.146 1.383h-.815v-2.309h.44zm1.072 0h1.799l-.797-4.037h-.164l-.838 4.037zm8.625-2.092c0 2.11-.781 3.165-2.344 3.165-.718 0-1.285-.254-1.699-.762-.41-.512-.615-1.293-.615-2.344 0-2.066.781-3.1 2.344-3.1.711 0 1.273.252 1.687.756.418.504.627 1.266.627 2.285zm-1.295.059c0-.832-.094-1.402-.281-1.71-.184-.313-.434-.47-.75-.47-.688 0-1.031.727-1.031 2.18 0 .742.08 1.291.24 1.647.16.355.424.533.791.533.363 0 .625-.18.785-.54.164-.363.246-.91.246-1.64zM116.377 96v-5.918h1.781l1.242 4.963 1.207-4.963h1.67V96h-1.113v-4.834L119.881 96h-1.254l-1.26-4.834V96h-.99zm8.432-4.242l-1.178-.147c.078-.527.32-.937.726-1.23.411-.293.913-.44 1.506-.44.532 0 .955.108 1.272.323.32.21.521.463.603.755.082.293.123.737.123 1.33v2.016c0 .817.035 1.362.106 1.635h-1.155c-.05-.215-.076-.543-.076-.984-.371.753-.925 1.13-1.664 1.13-.5 0-.902-.152-1.207-.457-.301-.308-.451-.726-.451-1.253 0-.645.221-1.155.662-1.53.445-.375 1.215-.562 2.309-.562.054 0 .14.002.258.006v-.24c0-.422-.065-.74-.194-.956-.125-.215-.351-.322-.679-.322-.536 0-.856.309-.961.926zm1.834 1.36a3.92 3.92 0 00-.358-.024c-1.062 0-1.594.416-1.594 1.248 0 .605.264.908.791.908.309 0 .579-.164.809-.492.234-.328.352-.78.352-1.354v-.287z" fill="#C1C1C1"/></svg>