<svg width="27" height="27" viewBox="0 0 27 27" fill="none" xmlns="http://www.w3.org/2000/svg">
<path d="M25.2233 0.756348H1.77534C1.21144 0.756348 0.755859 1.21192 0.755859 1.77582V25.2238C0.755859 25.7876 1.21144 26.2432 1.77534 26.2432H25.2233C25.7871 26.2432 26.2426 25.7876 26.2426 25.2238V1.77582C26.2426 1.21192 25.7871 0.756348 25.2233 0.756348ZM22.2795 8.19532H20.2437C18.6477 8.19532 18.3386 8.95356 18.3386 10.0686V12.5249H22.1488L21.6519 16.3703H18.3386V26.2432H14.3658V16.3735H11.043V12.5249H14.3658V9.6895C14.3658 6.3985 16.3761 4.60486 19.3135 4.60486C20.7216 4.60486 21.9291 4.70999 22.2826 4.75778V8.19532H22.2795Z" fill="#DA5959"/>
</svg>
