<svg width="16" height="17" viewBox="0 0 16 17" fill="none" xmlns="http://www.w3.org/2000/svg">
<path d="M11.348 11.234L10.832 12.007C10.729 12.161 10.593 12.293 10.414 12.341C9.82604 12.496 8.26704 12.566 5.89304 10.191C3.51804 7.81698 3.58804 6.25698 3.74304 5.66998C3.79104 5.49098 3.92205 5.35498 4.07705 5.25198L4.85004 4.73599C5.42604 4.35199 5.58104 3.57499 5.19804 2.99899L3.73704 0.807984C3.40204 0.305984 2.75604 0.11399 2.20104 0.35199L1.54204 0.634003C1.04204 0.849003 0.634042 1.233 0.390042 1.72C0.187042 2.127 0.0290459 2.55598 0.00804586 3.00998C-0.0599541 4.44198 0.25404 7.96999 4.18404 11.9C8.11404 15.83 11.642 16.143 13.074 16.076C13.528 16.055 13.957 15.897 14.363 15.694C14.85 15.45 15.235 15.042 15.45 14.541L15.732 13.883C15.97 13.328 15.778 12.682 15.276 12.347L13.085 10.886C12.509 10.503 11.732 10.658 11.348 11.234Z" fill="#DA5959"/>
</svg>
