<svg width="16" height="19" viewBox="0 0 16 19" fill="none" xmlns="http://www.w3.org/2000/svg">
<path fill-rule="evenodd" clip-rule="evenodd" d="M8.891 17.708C11.007 16.265 15.834 12.472 15.834 7.91701C15.834 3.54501 12.289 0 7.917 0C3.545 0 0 3.54501 0 7.91701C0 12.472 4.827 16.265 6.943 17.708C7.535 18.112 8.299 18.112 8.891 17.708ZM7.917 10.417C9.298 10.417 10.417 9.29801 10.417 7.91701C10.417 6.53601 9.298 5.41701 7.917 5.41701C6.536 5.41701 5.417 6.53601 5.417 7.91701C5.417 9.29801 6.536 10.417 7.917 10.417Z" fill="#DA5959"/>
</svg>
