<svg width="27" height="27" viewBox="0 0 27 27" fill="none" xmlns="http://www.w3.org/2000/svg">
<path d="M13.4998 9.20429C11.1343 9.20429 9.20398 11.1347 9.20398 13.5001C9.20398 15.8655 11.1343 17.7959 13.4998 17.7959C15.8652 17.7959 17.7955 15.8655 17.7955 13.5001C17.7955 11.1347 15.8652 9.20429 13.4998 9.20429ZM26.3839 13.5001C26.3839 11.7212 26.4001 9.95838 26.3002 8.1827C26.2003 6.1202 25.7298 4.28973 24.2215 2.78153C22.7101 1.2701 20.8828 0.802814 18.8203 0.702913C17.0415 0.60301 15.2787 0.619123 13.503 0.619123C11.7241 0.619123 9.9613 0.60301 8.18563 0.702913C6.12312 0.802814 4.29265 1.27332 2.78445 2.78153C1.27303 4.29296 0.805742 6.1202 0.705841 8.1827C0.605938 9.96161 0.622052 11.7244 0.622052 13.5001C0.622052 15.2757 0.605938 17.0418 0.705841 18.8175C0.805742 20.88 1.27625 22.7105 2.78445 24.2187C4.29588 25.7301 6.12312 26.1974 8.18563 26.2973C9.96453 26.3972 11.7273 26.3811 13.503 26.3811C15.2818 26.3811 17.0446 26.3972 18.8203 26.2973C20.8828 26.1974 22.7133 25.7268 24.2215 24.2187C25.7329 22.7072 26.2003 20.88 26.3002 18.8175C26.4033 17.0418 26.3839 15.279 26.3839 13.5001ZM13.4998 20.1098C9.84207 20.1098 6.89011 17.1578 6.89011 13.5001C6.89011 9.84237 9.84207 6.89042 13.4998 6.89042C17.1574 6.89042 20.1094 9.84237 20.1094 13.5001C20.1094 17.1578 17.1574 20.1098 13.4998 20.1098ZM20.3802 8.16336C19.5261 8.16336 18.8365 7.47371 18.8365 6.61971C18.8365 5.7657 19.5261 5.07606 20.3802 5.07606C21.2341 5.07606 21.9238 5.7657 21.9238 6.61971C21.924 6.8225 21.8842 7.02335 21.8068 7.21074C21.7293 7.39814 21.6156 7.56842 21.4722 7.7118C21.3288 7.8552 21.1585 7.96889 20.9712 8.04638C20.7838 8.12387 20.583 8.16362 20.3802 8.16336Z" fill="#DA5959"/>
</svg>
