<svg width="20" height="20" viewBox="0 0 20 20" fill="none" xmlns="http://www.w3.org/2000/svg">
<path d="M14.334 13.8743L13.6822 14.8507C13.5521 15.0453 13.3803 15.212 13.1542 15.2727C12.4114 15.4685 10.4421 15.5569 7.44335 12.5568C4.4433 9.55795 4.53172 7.58737 4.72751 6.84587C4.78815 6.61976 4.95363 6.44797 5.14943 6.31786L6.12586 5.66606C6.85345 5.181 7.04924 4.1995 6.56544 3.4719L4.71994 0.704225C4.29677 0.070102 3.48076 -0.172423 2.77969 0.128217L1.94726 0.484454C1.31567 0.756041 0.800292 1.24111 0.492076 1.85628C0.235651 2.3704 0.0360734 2.91228 0.00954659 3.48577C-0.0763496 5.29467 0.320282 9.75124 5.28458 14.7156C10.2489 19.6799 14.7054 20.0753 16.5142 19.9907C17.0877 19.9642 17.6296 19.7646 18.1425 19.5082C18.7577 19.1999 19.244 18.6845 19.5156 18.0517L19.8718 17.2205C20.1724 16.5194 19.9299 15.7034 19.2958 15.2802L16.5281 13.4347C15.8006 12.9509 14.8191 13.1467 14.334 13.8743Z" fill="#DA5959"/>
</svg>
