<svg width="40" height="40" viewBox="0 0 40 40" fill="none" xmlns="http://www.w3.org/2000/svg">
<path d="M37.857 14.1741C37.33 12.5397 37.555 10.0864 36.183 8.1921C34.8 6.2829 32.395 5.7402 31.037 4.7471C29.694 3.7644 28.444 1.6261 26.184 0.888597C23.987 0.171797 21.741 1.1444 20 1.1444C18.259 1.1444 16.013 0.171598 13.816 0.888498C11.557 1.6258 10.306 3.7647 8.96301 4.7468C7.60601 5.7388 5.19999 6.2829 3.81699 8.1918C2.44699 10.0846 2.67001 12.5436 2.14301 14.174C1.64101 15.7258 0 17.5882 0 20.0001C0 22.4135 1.63901 24.2687 2.14301 25.8261C2.67001 27.4605 2.44499 29.9139 3.81699 31.8082C5.19999 33.7175 7.60501 34.26 8.96301 35.2532C10.306 36.2357 11.556 38.3743 13.816 39.1117C16.011 39.8279 18.261 38.8558 20 38.8558C21.737 38.8558 23.992 39.8269 26.184 39.1118C28.443 38.3744 29.694 36.2361 31.037 35.2534C32.394 34.2614 34.8 33.7173 36.182 31.8084C37.553 29.9156 37.33 27.4568 37.857 25.8262C38.359 24.2743 40 22.4119 40 20.0001C40 17.5869 38.361 15.7322 37.857 14.1741ZM34.884 24.8653C34.269 26.7696 34.43 28.9007 33.652 29.9753C32.863 31.0641 30.791 31.5614 29.193 32.7308C27.611 33.8871 26.503 35.7202 25.214 36.1407C23.995 36.5387 22.008 35.7307 20 35.7307C17.978 35.7307 16.011 36.5404 14.786 36.1407C13.497 35.7202 12.39 33.8884 10.807 32.7307C9.21801 31.5685 7.13499 31.0609 6.34799 29.9751C5.57299 28.9042 5.728 26.7582 5.116 24.8654C4.517 23.0107 3.125 21.4049 3.125 20.0001C3.125 18.594 4.516 16.9936 5.116 15.135C5.731 13.2307 5.56999 11.0994 6.34799 10.025C7.13599 8.9368 9.21001 8.4379 10.807 7.2694C12.394 6.1093 13.495 4.2807 14.786 3.8595C16.004 3.462 17.998 4.2696 20 4.2696C22.026 4.2696 23.988 3.4593 25.214 3.8595C26.503 4.28 27.61 6.1125 29.193 7.2695C30.782 8.4318 32.865 8.9393 33.652 10.025C34.427 11.0962 34.271 13.24 34.884 15.1348V15.1349C35.483 16.9895 36.875 18.5954 36.875 20.0001C36.875 21.4063 35.484 23.0066 34.884 24.8653ZM27.199 14.9849C27.809 15.5951 27.809 16.5844 27.199 17.1946L19.378 25.0154C18.768 25.6256 17.778 25.6255 17.168 25.0154L12.801 20.6486C12.191 20.0384 12.191 19.0491 12.801 18.4389C13.412 17.8288 14.401 17.8287 15.011 18.4389L18.273 21.7008L24.989 14.985C25.599 14.3747 26.588 14.3747 27.199 14.9849Z" fill="#3A3A3A"/>
</svg>
