<svg width="52" height="52" viewBox="0 0 52 52" fill="none" xmlns="http://www.w3.org/2000/svg">
<path d="M7.11097 33.7194L11.9093 7.27448C11.9824 6.87165 12.2172 6.51355 12.562 6.27892C12.9068 6.04431 13.3333 5.9524 13.7478 6.02344L24.6886 7.89814C25.103 7.96918 25.4715 8.19731 25.713 8.53239C25.9544 8.86745 26.049 9.28199 25.9758 9.68482L21.1531 36.2648C20.8284 38.0545 19.7942 39.6489 18.2729 40.7057C16.7517 41.7625 14.8645 42.1974 13.017 41.9167C9.06068 41.3144 6.41559 37.552 7.11097 33.7194Z" stroke="#3A3A3A" stroke-width="3" stroke-linecap="round" stroke-linejoin="round"/>
<path d="M23.4549 24.3602L37.3202 19.0956C37.699 18.9518 38.1172 18.9708 38.4825 19.1486C38.848 19.3264 39.1308 19.6483 39.2687 20.0435L42.9084 30.4752C42.9767 30.6709 43.0072 30.8788 42.9986 31.0869C42.9899 31.2949 42.942 31.4992 42.8576 31.6879C42.7733 31.8766 42.6541 32.0462 42.5069 32.1868C42.3596 32.3277 42.1874 32.4366 41.9998 32.5078L17 42" stroke="#3A3A3A" stroke-width="3" stroke-linecap="round" stroke-linejoin="round"/>
<path d="M43 32V40.5037C43 40.9005 42.8348 41.2812 42.5409 41.5617C42.2469 41.8424 41.8482 42 41.4324 42H14" stroke="#3A3A3A" stroke-width="3" stroke-linecap="round" stroke-linejoin="round"/>
<path d="M14.5 37C15.8807 37 17 36.1045 17 35C17 33.8955 15.8807 33 14.5 33C13.1193 33 12 33.8955 12 35C12 36.1045 13.1193 37 14.5 37Z" fill="#3A3A3A"/>
</svg>
