<svg width="18" height="18" viewBox="0 0 18 18" fill="none" xmlns="http://www.w3.org/2000/svg">
<path d="M17.78 0.216943C17.68 0.116943 17.55 0.0469542 17.41 0.0159542C17.27 -0.0140458 17.13 -0.00405411 16.99 0.0449459L0.5 6.04495C0.35 6.09895 0.230015 6.19495 0.140015 6.31995C0.0600147 6.44495 0.0100098 6.59395 0.0100098 6.74595C0.0100098 6.89795 0.0600147 7.04694 0.140015 7.17194C0.230015 7.29694 0.35 7.39295 0.5 7.44695L6.93994 10.02L11.6899 5.24995L12.75 6.30695L7.96997 11.085L10.55 17.5269C10.61 17.6669 10.7 17.787 10.83 17.871C10.95 17.955 11.1 17.9999 11.25 17.9999C11.4 17.9969 11.55 17.9479 11.67 17.8599C11.79 17.7709 11.8899 17.648 11.9399 17.505L17.9399 1.00495C17.9899 0.871953 18 0.727945 17.98 0.587945C17.95 0.448945 17.88 0.319943 17.78 0.216943Z" fill="white"/>
</svg>
