<svg width="16" height="12" viewBox="0 0 16 12" fill="none" xmlns="http://www.w3.org/2000/svg">
<path d="M15.37 6.56001L10.39 11.56C10.23 11.72 10.03 11.8 9.82996 11.8C9.62996 11.8 9.43002 11.72 9.27002 11.56C8.95002 11.24 8.95002 10.74 9.27002 10.42L12.89 6.78004H1.20996C0.769961 6.78004 0.410034 6.41999 0.410034 5.97999C0.410034 5.53999 0.769961 5.18 1.20996 5.18H12.89L9.27002 1.53999C8.95002 1.21999 8.95002 0.720034 9.27002 0.400034C9.59002 0.0800342 10.09 0.0800342 10.41 0.400034L15.39 5.40003C15.69 5.74003 15.69 6.26001 15.37 6.56001Z" fill="black"/>
</svg>
