<svg width="16" height="17" fill="none" xmlns="http://www.w3.org/2000/svg"><path d="M11.348 11.234l-.516.773c-.103.154-.239.286-.418.334-.588.155-2.147.225-4.521-2.15-2.375-2.374-2.305-3.934-2.15-4.521.048-.179.18-.315.334-.418l.773-.516a1.253 1.253 0 00.348-1.737L3.737.808A1.253 1.253 0 002.201.352l-.659.282C1.042.849.634 1.233.39 1.72c-.203.407-.361.836-.382 1.29-.068 1.432.246 4.96 4.176 8.89 3.93 3.93 7.458 4.243 8.89 4.176.454-.021.883-.179 1.289-.382a2.307 2.307 0 001.087-1.153l.282-.658a1.253 1.253 0 00-.456-1.536l-2.191-1.461a1.253 1.253 0 00-1.737.348z" fill="#DA5959"/></svg>