<svg width="27" height="27" fill="none" xmlns="http://www.w3.org/2000/svg"><path d="M13.5 9.204A4.305 4.305 0 009.204 13.5a4.305 4.305 0 004.296 4.296 4.305 4.305 0 004.296-4.296A4.305 4.305 0 0013.5 9.204zM26.384 13.5c0-1.779.016-3.542-.084-5.317-.1-2.063-.57-3.893-2.079-5.401-1.51-1.512-3.338-1.98-5.4-2.08C17.04.604 15.278.62 13.502.62 11.723.62 9.96.604 8.185.704c-2.063.1-3.893.57-5.402 2.079C1.273 4.293.806 6.12.706 8.182c-.1 1.78-.084 3.542-.084 5.318 0 1.776-.016 3.542.084 5.317.1 2.063.57 3.893 2.078 5.402 1.512 1.511 3.34 1.978 5.402 2.078 1.779.1 3.541.084 5.317.084 1.779 0 3.542.016 5.317-.084 2.063-.1 3.893-.57 5.401-2.078 1.512-1.512 1.98-3.339 2.08-5.402.102-1.775.083-3.538.083-5.317zM13.5 20.11a6.6 6.6 0 01-6.61-6.61 6.6 6.6 0 016.61-6.61 6.6 6.6 0 016.61 6.61 6.6 6.6 0 01-6.61 6.61zm6.88-11.947c-.854 0-1.543-.69-1.543-1.543 0-.854.69-1.544 1.543-1.544a1.542 1.542 0 011.427 2.135 1.542 1.542 0 01-1.427.952z" fill="#DA5959"/></svg>