<svg width="20" height="20" fill="none" xmlns="http://www.w3.org/2000/svg"><path d="M14.334 13.874l-.652.977c-.13.194-.302.361-.528.422-.743.196-2.712.284-5.71-2.716-3-3-2.912-4.97-2.716-5.711.06-.226.226-.398.421-.528l.977-.652a1.583 1.583 0 00.44-2.194L4.72.704A1.583 1.583 0 002.78.128l-.833.356A2.914 2.914 0 00.492 1.856C.236 2.37.036 2.912.01 3.486c-.086 1.809.31 6.265 5.275 11.23 4.964 4.964 9.42 5.36 11.23 5.275.573-.027 1.115-.226 1.627-.483a2.915 2.915 0 001.374-1.456l.356-.831c.3-.702.058-1.518-.576-1.94l-2.768-1.846a1.583 1.583 0 00-2.194.44z" fill="#DA5959"/></svg>