<svg width="52" height="52" fill="none" xmlns="http://www.w3.org/2000/svg"><path d="M7.111 33.72l4.798-26.446a1.54 1.54 0 01.653-.995 1.623 1.623 0 011.186-.256l10.94 1.875c.415.071.784.3 1.025.634.241.335.336.75.263 1.153l-4.823 26.58a6.92 6.92 0 01-2.88 4.44 7.302 7.302 0 01-5.256 1.212c-3.956-.603-6.601-4.365-5.906-8.198z" stroke="#3A3A3A" stroke-width="3" stroke-linecap="round" stroke-linejoin="round"/><path d="M23.455 24.36l13.865-5.264a1.462 1.462 0 011.163.053c.365.177.648.5.786.895l3.64 10.431a1.65 1.65 0 01-.051 1.213 1.582 1.582 0 01-.351.499c-.147.14-.32.25-.507.32L17 42" stroke="#3A3A3A" stroke-width="3" stroke-linecap="round" stroke-linejoin="round"/><path d="M43 32v8.504c0 .397-.165.777-.46 1.058-.293.28-.692.438-1.108.438H14" stroke="#3A3A3A" stroke-width="3" stroke-linecap="round" stroke-linejoin="round"/><path d="M14.5 37c1.38 0 2.5-.895 2.5-2s-1.12-2-2.5-2-2.5.895-2.5 2 1.12 2 2.5 2z" fill="#3A3A3A"/></svg>