<svg width="288" height="189" viewBox="0 0 288 189" fill="none" xmlns="http://www.w3.org/2000/svg">
<path d="M26.4 141.96C19.2 141.96 14.08 140.44 11.04 137.4C8 134.28 6.32 129.16 6 122.04C5.92 119.24 5.88 116.52 5.88 113.88C5.96 111.24 6.12 108.48 6.36 105.6H18.6C18.44 108.88 18.32 112.12 18.24 115.32C18.24 118.52 18.36 121.52 18.6 124.32C18.76 126.72 19.44 128.48 20.64 129.6C21.92 130.72 23.84 131.28 26.4 131.28C28.88 131.28 30.68 130.72 31.8 129.6C33 128.48 33.68 126.72 33.84 124.32C34.08 121.6 34.16 119.16 34.08 117C34.08 114.76 34 112.16 33.84 109.2C33.68 106.88 33.2 104.88 32.4 103.2C31.6 101.52 30.16 100.4 28.08 99.84L20.04 97.8C14.6 96.44 10.88 94.08 8.88 90.72C6.88 87.36 5.8 82.8 5.64 77.04C5.64 74.88 5.64 72.68 5.64 70.44C5.64 68.2 5.68 66 5.76 63.84C6 56.72 7.64 51.64 10.68 48.6C13.8 45.56 19.04 44.04 26.4 44.04C33.28 44.04 38.28 45.56 41.4 48.6C44.52 51.64 46.2 56.72 46.44 63.84C46.52 65.84 46.52 68.28 46.44 71.16C46.44 73.96 46.4 76.8 46.32 79.68H33.84C33.92 76.64 33.96 73.64 33.96 70.68C34.04 67.64 34 64.6 33.84 61.56C33.68 57 31.16 54.72 26.28 54.72C23.8 54.72 21.96 55.28 20.76 56.4C19.56 57.52 18.88 59.24 18.72 61.56C18.48 64.12 18.36 66.72 18.36 69.36C18.44 71.92 18.56 74.48 18.72 77.04C18.88 79.68 19.36 81.76 20.16 83.28C21.04 84.8 22.6 85.84 24.84 86.4L32.04 88.08C37.72 89.44 41.56 91.88 43.56 95.4C45.56 98.84 46.68 103.44 46.92 109.2C47 111.76 47 113.96 46.92 115.8C46.92 117.64 46.88 119.72 46.8 122.04C46.56 129.16 44.88 134.28 41.76 137.4C38.64 140.44 33.52 141.96 26.4 141.96ZM82.2778 141V45H104.478L110.958 82.8L114.078 129.36H116.718L119.598 82.8L126.198 45H148.278V141H135.318V111.96L137.598 56.52H134.838L128.838 113.04L123.198 140.76H107.358L101.838 113.04L95.8378 56.52H93.0778L95.3578 112.32V141H82.2778ZM179.33 141.96C172.13 141.96 167.01 140.44 163.97 137.4C160.93 134.28 159.25 129.16 158.93 122.04C158.85 119.24 158.81 116.52 158.81 113.88C158.89 111.24 159.05 108.48 159.29 105.6H171.53C171.37 108.88 171.25 112.12 171.17 115.32C171.17 118.52 171.29 121.52 171.53 124.32C171.69 126.72 172.37 128.48 173.57 129.6C174.85 130.72 176.77 131.28 179.33 131.28C181.81 131.28 183.61 130.72 184.73 129.6C185.93 128.48 186.61 126.72 186.77 124.32C187.01 121.6 187.09 119.16 187.01 117C187.01 114.76 186.93 112.16 186.77 109.2C186.61 106.88 186.13 104.88 185.33 103.2C184.53 101.52 183.09 100.4 181.01 99.84L172.97 97.8C167.53 96.44 163.81 94.08 161.81 90.72C159.81 87.36 158.73 82.8 158.57 77.04C158.57 74.88 158.57 72.68 158.57 70.44C158.57 68.2 158.61 66 158.69 63.84C158.93 56.72 160.57 51.64 163.61 48.6C166.73 45.56 171.97 44.04 179.33 44.04C186.21 44.04 191.21 45.56 194.33 48.6C197.45 51.64 199.13 56.72 199.37 63.84C199.45 65.84 199.45 68.28 199.37 71.16C199.37 73.96 199.33 76.8 199.25 79.68H186.77C186.85 76.64 186.89 73.64 186.89 70.68C186.97 67.64 186.93 64.6 186.77 61.56C186.61 57 184.09 54.72 179.21 54.72C176.73 54.72 174.89 55.28 173.69 56.4C172.49 57.52 171.81 59.24 171.65 61.56C171.41 64.12 171.29 66.72 171.29 69.36C171.37 71.92 171.49 74.48 171.65 77.04C171.81 79.68 172.29 81.76 173.09 83.28C173.97 84.8 175.53 85.84 177.77 86.4L184.97 88.08C190.65 89.44 194.49 91.88 196.49 95.4C198.49 98.84 199.61 103.44 199.85 109.2C199.93 111.76 199.93 113.96 199.85 115.8C199.85 117.64 199.81 119.72 199.73 122.04C199.49 129.16 197.81 134.28 194.69 137.4C191.57 140.44 186.45 141.96 179.33 141.96Z" fill="#3A3A3A"/>
<path d="M58.1372 141V45H71.2172V141H58.1372Z" fill="#DA5959"/>
<path d="M9.08105 162V153.123H15.084V162H13.2471V154.362H10.918V162H9.08105ZM17.2461 153.123H18.9336V154.582C19.3965 153.51 20.1289 152.974 21.1309 152.974C22.0273 152.974 22.751 153.366 23.3018 154.151C23.8525 154.931 24.1279 156.044 24.1279 157.491C24.1279 158.786 23.876 159.888 23.3721 160.796C22.874 161.704 22.0977 162.158 21.043 162.158C20.1992 162.158 19.54 161.798 19.0654 161.077V165.006H17.2461V153.123ZM19.0654 158.291C19.0654 158.859 19.1064 159.305 19.1885 159.627C19.2764 159.943 19.4521 160.216 19.7158 160.444C19.9795 160.667 20.2783 160.778 20.6123 160.778C21.6553 160.778 22.1768 159.683 22.1768 157.491C22.1768 155.37 21.667 154.31 20.6475 154.31C20.1963 154.31 19.8184 154.526 19.5137 154.96C19.2148 155.394 19.0654 156.012 19.0654 156.814V158.291ZM32.3984 157.474C32.3984 160.638 31.2266 162.22 28.8828 162.22C27.8047 162.22 26.9551 161.839 26.334 161.077C25.7188 160.31 25.4111 159.138 25.4111 157.562C25.4111 154.462 26.583 152.912 28.9268 152.912C29.9932 152.912 30.8369 153.29 31.458 154.046C32.085 154.802 32.3984 155.944 32.3984 157.474ZM30.4561 157.562C30.4561 156.313 30.3154 155.458 30.0342 154.995C29.7588 154.526 29.3838 154.292 28.9092 154.292C27.8779 154.292 27.3623 155.382 27.3623 157.562C27.3623 158.675 27.4824 159.498 27.7227 160.031C27.9629 160.564 28.3584 160.831 28.9092 160.831C29.4541 160.831 29.8467 160.562 30.0869 160.022C30.333 159.478 30.4561 158.657 30.4561 157.562ZM40.2822 156.111L38.5156 156.305C38.4277 155.531 38.2783 155.016 38.0674 154.758C37.8564 154.494 37.5576 154.362 37.1709 154.362C36.626 154.362 36.2305 154.614 35.9844 155.118C35.7383 155.616 35.6152 156.495 35.6152 157.755C35.6152 159.724 36.1338 160.708 37.1709 160.708C37.9678 160.708 38.416 160.066 38.5156 158.783L40.2822 158.941C40.042 161.127 38.9609 162.22 37.0391 162.22C35.9023 162.22 35.0586 161.81 34.5078 160.989C33.9629 160.169 33.6904 159.035 33.6904 157.588C33.6904 156.064 33.9863 154.904 34.5781 154.107C35.1699 153.311 36.0312 152.912 37.1621 152.912C38.9844 152.912 40.0244 153.979 40.2822 156.111ZM42.6553 162V154.503H40.625V153.123H46.4609V154.503H44.4922V162H42.6553ZM47.4014 162V153.123H49.2383V156.516H51.1719C52.0625 156.516 52.6895 156.788 53.0527 157.333C53.4219 157.878 53.6064 158.522 53.6064 159.267C53.6064 161.089 52.7539 162 51.0488 162H47.4014ZM49.2383 160.611H50.7236C51.4443 160.611 51.8047 160.146 51.8047 159.214C51.8047 158.241 51.4443 157.755 50.7236 157.755H49.2383V160.611ZM54.3447 162V153.123H56.1816V162H54.3447ZM64.8037 157.834H59.7852C59.7852 159.035 59.9463 159.838 60.2686 160.242C60.5967 160.641 61.0068 160.84 61.499 160.84C62.3193 160.84 62.8379 160.286 63.0547 159.179L64.7246 159.398C64.2852 161.279 63.1895 162.22 61.4375 162.22C60.3652 162.22 59.5098 161.836 58.8711 161.068C58.2324 160.301 57.9131 159.176 57.9131 157.693C57.9131 156.17 58.2354 154.992 58.8799 154.16C59.5244 153.328 60.3857 152.912 61.4639 152.912C62.2197 152.912 62.8555 153.12 63.3711 153.536C63.8867 153.952 64.25 154.5 64.4609 155.18C64.6719 155.854 64.7861 156.738 64.8037 157.834ZM62.9316 156.595C62.9316 155.03 62.4219 154.248 61.4023 154.248C60.4473 154.248 59.9229 155.03 59.8291 156.595H62.9316ZM69.6816 153.123H71.3691V154.582C71.832 153.51 72.5645 152.974 73.5664 152.974C74.4629 152.974 75.1865 153.366 75.7373 154.151C76.2881 154.931 76.5635 156.044 76.5635 157.491C76.5635 158.786 76.3115 159.888 75.8076 160.796C75.3096 161.704 74.5332 162.158 73.4785 162.158C72.6348 162.158 71.9756 161.798 71.501 161.077V165.006H69.6816V153.123ZM71.501 158.291C71.501 158.859 71.542 159.305 71.624 159.627C71.7119 159.943 71.8877 160.216 72.1514 160.444C72.415 160.667 72.7139 160.778 73.0479 160.778C74.0908 160.778 74.6123 159.683 74.6123 157.491C74.6123 155.37 74.1025 154.31 73.083 154.31C72.6318 154.31 72.2539 154.526 71.9492 154.96C71.6504 155.394 71.501 156.012 71.501 156.814V158.291ZM84.7373 157.834H79.7188C79.7188 159.035 79.8799 159.838 80.2021 160.242C80.5303 160.641 80.9404 160.84 81.4326 160.84C82.2529 160.84 82.7715 160.286 82.9883 159.179L84.6582 159.398C84.2188 161.279 83.123 162.22 81.3711 162.22C80.2988 162.22 79.4434 161.836 78.8047 161.068C78.166 160.301 77.8467 159.176 77.8467 157.693C77.8467 156.17 78.1689 154.992 78.8135 154.16C79.458 153.328 80.3193 152.912 81.3975 152.912C82.1533 152.912 82.7891 153.12 83.3047 153.536C83.8203 153.952 84.1836 154.5 84.3945 155.18C84.6055 155.854 84.7197 156.738 84.7373 157.834ZM82.8652 156.595C82.8652 155.03 82.3555 154.248 81.3359 154.248C80.3809 154.248 79.8564 155.03 79.7627 156.595H82.8652ZM86.2666 162V153.123H88.1035V160.611H90.292V153.123H92.1289V160.611H94.3174V153.123H96.1543V162H86.2666ZM104.776 157.834H99.7578C99.7578 159.035 99.9189 159.838 100.241 160.242C100.569 160.641 100.979 160.84 101.472 160.84C102.292 160.84 102.811 160.286 103.027 159.179L104.697 159.398C104.258 161.279 103.162 162.22 101.41 162.22C100.338 162.22 99.4824 161.836 98.8438 161.068C98.2051 160.301 97.8857 159.176 97.8857 157.693C97.8857 156.17 98.208 154.992 98.8525 154.16C99.4971 153.328 100.358 152.912 101.437 152.912C102.192 152.912 102.828 153.12 103.344 153.536C103.859 153.952 104.223 154.5 104.434 155.18C104.645 155.854 104.759 156.738 104.776 157.834ZM102.904 156.595C102.904 155.03 102.395 154.248 101.375 154.248C100.42 154.248 99.8955 155.03 99.8018 156.595H102.904ZM106.306 162V153.123H108.143V156.647H110.797V153.123H112.634V162H110.797V158.027H108.143V162H106.306ZM116.633 161.095V162H114.796V153.123H116.633V156.973C116.633 157.916 116.612 158.528 116.571 158.81C116.829 158.253 117.14 157.685 117.503 157.104L119.305 154.274V153.123H121.142V162H119.305V158.37C119.305 157.392 119.325 156.779 119.366 156.533C119.114 157.166 118.771 157.816 118.338 158.484L116.633 161.095ZM127.268 162V158.458H125.659L124.314 162H122.451L124.174 158.08C123.283 157.664 122.838 156.929 122.838 155.874C122.838 155.077 123.02 154.421 123.383 153.905C123.746 153.384 124.481 153.123 125.589 153.123H129.104V162H127.268ZM127.268 157.219V154.362H125.896C125.457 154.362 125.138 154.479 124.938 154.714C124.739 154.948 124.64 155.329 124.64 155.856C124.64 156.255 124.728 156.583 124.903 156.841C125.085 157.093 125.457 157.219 126.02 157.219H127.268ZM134.589 160.611L136.382 153.123H139.115L140.724 160.611H141.383V164.074H140.161L139.941 162H135.371L135.151 164.074H133.93V160.611H134.589ZM136.197 160.611H138.896L137.7 154.556H137.454L136.197 160.611ZM141.286 162L143.747 153.123H145.874L148.159 162H146.234L144.661 154.916L142.93 162H141.286ZM153.002 162V158.458H151.394L150.049 162H148.186L149.908 158.08C149.018 157.664 148.572 156.929 148.572 155.874C148.572 155.077 148.754 154.421 149.117 153.905C149.48 153.384 150.216 153.123 151.323 153.123H154.839V162H153.002ZM153.002 157.219V154.362H151.631C151.191 154.362 150.872 154.479 150.673 154.714C150.474 154.948 150.374 155.329 150.374 155.856C150.374 156.255 150.462 156.583 150.638 156.841C150.819 157.093 151.191 157.219 151.754 157.219H153.002ZM160.323 160.611L162.116 153.123H164.85L166.458 160.611H167.117V164.074H165.896L165.676 162H161.105L160.886 164.074H159.664V160.611H160.323ZM161.932 160.611H164.63L163.435 154.556H163.188L161.932 160.611ZM174.869 157.474C174.869 160.638 173.697 162.22 171.354 162.22C170.275 162.22 169.426 161.839 168.805 161.077C168.189 160.31 167.882 159.138 167.882 157.562C167.882 154.462 169.054 152.912 171.397 152.912C172.464 152.912 173.308 153.29 173.929 154.046C174.556 154.802 174.869 155.944 174.869 157.474ZM172.927 157.562C172.927 156.313 172.786 155.458 172.505 154.995C172.229 154.526 171.854 154.292 171.38 154.292C170.349 154.292 169.833 155.382 169.833 157.562C169.833 158.675 169.953 159.498 170.193 160.031C170.434 160.564 170.829 160.831 171.38 160.831C171.925 160.831 172.317 160.562 172.558 160.022C172.804 159.478 172.927 158.657 172.927 157.562ZM176.565 162V153.123H179.237L181.101 160.567L182.911 153.123H185.416V162H183.746V154.749L181.821 162H179.94L178.051 154.749V162H176.565ZM189.213 155.637L187.446 155.417C187.563 154.626 187.927 154.011 188.536 153.571C189.151 153.132 189.904 152.912 190.795 152.912C191.592 152.912 192.228 153.073 192.702 153.396C193.183 153.712 193.484 154.09 193.607 154.529C193.73 154.969 193.792 155.634 193.792 156.524V159.548C193.792 160.772 193.845 161.59 193.95 162H192.219C192.143 161.678 192.104 161.186 192.104 160.523C191.548 161.654 190.716 162.22 189.608 162.22C188.858 162.22 188.255 161.991 187.798 161.534C187.347 161.071 187.121 160.444 187.121 159.653C187.121 158.687 187.452 157.922 188.114 157.359C188.782 156.797 189.937 156.516 191.577 156.516C191.659 156.516 191.788 156.519 191.964 156.524V156.164C191.964 155.531 191.867 155.054 191.674 154.731C191.486 154.409 191.146 154.248 190.654 154.248C189.852 154.248 189.371 154.711 189.213 155.637ZM191.964 157.676C191.729 157.652 191.551 157.641 191.428 157.641C189.834 157.641 189.037 158.265 189.037 159.513C189.037 160.421 189.433 160.875 190.224 160.875C190.687 160.875 191.091 160.629 191.437 160.137C191.788 159.645 191.964 158.968 191.964 158.106V157.676Z" fill="#C1C1C1"/>
</svg>
