<svg width="138" height="99" viewBox="0 0 138 99" fill="none" xmlns="http://www.w3.org/2000/svg">
<path d="M17.6 79.64C12.8 79.64 9.38667 78.6267 7.36 76.6C5.33333 74.52 4.21333 71.1067 4 66.36C3.94667 64.4933 3.92 62.68 3.92 60.92C3.97333 59.16 4.08 57.32 4.24 55.4H12.4C12.2933 57.5867 12.2133 59.7467 12.16 61.88C12.16 64.0133 12.24 66.0133 12.4 67.88C12.5067 69.48 12.96 70.6533 13.76 71.4C14.6133 72.1467 15.8933 72.52 17.6 72.52C19.2533 72.52 20.4533 72.1467 21.2 71.4C22 70.6533 22.4533 69.48 22.56 67.88C22.72 66.0667 22.7733 64.44 22.72 63C22.72 61.5067 22.6667 59.7733 22.56 57.8C22.4533 56.2533 22.1333 54.92 21.6 53.8C21.0667 52.68 20.1067 51.9333 18.72 51.56L13.36 50.2C9.73333 49.2933 7.25333 47.72 5.92 45.48C4.58667 43.24 3.86667 40.2 3.76 36.36C3.76 34.92 3.76 33.4533 3.76 31.96C3.76 30.4667 3.78667 29 3.84 27.56C4 22.8133 5.09333 19.4267 7.12 17.4C9.2 15.3733 12.6933 14.36 17.6 14.36C22.1867 14.36 25.52 15.3733 27.6 17.4C29.68 19.4267 30.8 22.8133 30.96 27.56C31.0133 28.8933 31.0133 30.52 30.96 32.44C30.96 34.3067 30.9333 36.2 30.88 38.12H22.56C22.6133 36.0933 22.64 34.0933 22.64 32.12C22.6933 30.0933 22.6667 28.0667 22.56 26.04C22.4533 23 20.7733 21.48 17.52 21.48C15.8667 21.48 14.64 21.8533 13.84 22.6C13.04 23.3467 12.5867 24.4933 12.48 26.04C12.32 27.7467 12.24 29.48 12.24 31.24C12.2933 32.9467 12.3733 34.6533 12.48 36.36C12.5867 38.12 12.9067 39.5067 13.44 40.52C14.0267 41.5333 15.0667 42.2267 16.56 42.6L21.36 43.72C25.1467 44.6267 27.7067 46.2533 29.04 48.6C30.3733 50.8933 31.12 53.96 31.28 57.8C31.3333 59.5067 31.3333 60.9733 31.28 62.2C31.28 63.4267 31.2533 64.8133 31.2 66.36C31.04 71.1067 29.92 74.52 27.84 76.6C25.76 78.6267 22.3467 79.64 17.6 79.64ZM54.8519 79V15H69.6519L73.9719 40.2L76.0519 71.24H77.8119L79.7319 40.2L84.1319 15H98.8519V79H90.2119V59.64L91.7319 22.68H89.8919L85.8919 60.36L82.1319 78.84H71.5719L67.8919 60.36L63.8919 22.68H62.0519L63.5719 59.88V79H54.8519ZM119.553 79.64C114.753 79.64 111.34 78.6267 109.313 76.6C107.286 74.52 106.166 71.1067 105.953 66.36C105.9 64.4933 105.873 62.68 105.873 60.92C105.926 59.16 106.033 57.32 106.193 55.4H114.353C114.246 57.5867 114.166 59.7467 114.113 61.88C114.113 64.0133 114.193 66.0133 114.353 67.88C114.46 69.48 114.913 70.6533 115.713 71.4C116.566 72.1467 117.846 72.52 119.553 72.52C121.206 72.52 122.406 72.1467 123.153 71.4C123.953 70.6533 124.406 69.48 124.513 67.88C124.673 66.0667 124.726 64.44 124.673 63C124.673 61.5067 124.62 59.7733 124.513 57.8C124.406 56.2533 124.086 54.92 123.553 53.8C123.02 52.68 122.06 51.9333 120.673 51.56L115.313 50.2C111.686 49.2933 109.206 47.72 107.873 45.48C106.54 43.24 105.82 40.2 105.713 36.36C105.713 34.92 105.713 33.4533 105.713 31.96C105.713 30.4667 105.74 29 105.793 27.56C105.953 22.8133 107.046 19.4267 109.073 17.4C111.153 15.3733 114.646 14.36 119.553 14.36C124.14 14.36 127.473 15.3733 129.553 17.4C131.633 19.4267 132.753 22.8133 132.913 27.56C132.966 28.8933 132.966 30.52 132.913 32.44C132.913 34.3067 132.886 36.2 132.833 38.12H124.513C124.566 36.0933 124.593 34.0933 124.593 32.12C124.646 30.0933 124.62 28.0667 124.513 26.04C124.406 23 122.726 21.48 119.473 21.48C117.82 21.48 116.593 21.8533 115.793 22.6C114.993 23.3467 114.54 24.4933 114.433 26.04C114.273 27.7467 114.193 29.48 114.193 31.24C114.246 32.9467 114.326 34.6533 114.433 36.36C114.54 38.12 114.86 39.5067 115.393 40.52C115.98 41.5333 117.02 42.2267 118.513 42.6L123.313 43.72C127.1 44.6267 129.66 46.2533 130.993 48.6C132.326 50.8933 133.073 53.96 133.233 57.8C133.286 59.5067 133.286 60.9733 133.233 62.2C133.233 63.4267 133.206 64.8133 133.153 66.36C132.993 71.1067 131.873 74.52 129.793 76.6C127.713 78.6267 124.3 79.64 119.553 79.64Z" fill="#3A3A3A"/>
<path d="M38.7581 79V15H47.4781V79H38.7581Z" fill="#DA5959"/>
<path d="M4.7207 96V90.082H8.72266V96H7.49805V90.9082H5.94531V96H4.7207ZM10.1641 90.082H11.2891V91.0547C11.5977 90.3398 12.0859 89.9824 12.7539 89.9824C13.3516 89.9824 13.834 90.2441 14.2012 90.7676C14.5684 91.2871 14.752 92.0293 14.752 92.9941C14.752 93.8574 14.584 94.5918 14.248 95.1973C13.916 95.8027 13.3984 96.1055 12.6953 96.1055C12.1328 96.1055 11.6934 95.8652 11.377 95.3848V98.0039H10.1641V90.082ZM11.377 93.5273C11.377 93.9062 11.4043 94.2031 11.459 94.418C11.5176 94.6289 11.6348 94.8105 11.8105 94.9629C11.9863 95.1113 12.1855 95.1855 12.4082 95.1855C13.1035 95.1855 13.4512 94.4551 13.4512 92.9941C13.4512 91.5801 13.1113 90.873 12.4316 90.873C12.1309 90.873 11.8789 91.0176 11.6758 91.3066C11.4766 91.5957 11.377 92.0078 11.377 92.543V93.5273ZM20.2656 92.9824C20.2656 95.0918 19.4844 96.1465 17.9219 96.1465C17.2031 96.1465 16.6367 95.8926 16.2227 95.3848C15.8125 94.873 15.6074 94.0918 15.6074 93.041C15.6074 90.9746 16.3887 89.9414 17.9512 89.9414C18.6621 89.9414 19.2246 90.1934 19.6387 90.6973C20.0566 91.2012 20.2656 91.9629 20.2656 92.9824ZM18.9707 93.041C18.9707 92.209 18.877 91.6387 18.6895 91.3301C18.5059 91.0176 18.2559 90.8613 17.9395 90.8613C17.252 90.8613 16.9082 91.5879 16.9082 93.041C16.9082 93.7832 16.9883 94.332 17.1484 94.6875C17.3086 95.043 17.5723 95.2207 17.9395 95.2207C18.3027 95.2207 18.5645 95.041 18.7246 94.6816C18.8887 94.3184 18.9707 93.7715 18.9707 93.041ZM25.5215 92.0742L24.3438 92.2031C24.2852 91.6875 24.1855 91.3438 24.0449 91.1719C23.9043 90.9961 23.7051 90.9082 23.4473 90.9082C23.084 90.9082 22.8203 91.0762 22.6562 91.4121C22.4922 91.7441 22.4102 92.3301 22.4102 93.1699C22.4102 94.4824 22.7559 95.1387 23.4473 95.1387C23.9785 95.1387 24.2773 94.7109 24.3438 93.8555L25.5215 93.9609C25.3613 95.418 24.6406 96.1465 23.3594 96.1465C22.6016 96.1465 22.0391 95.873 21.6719 95.3262C21.3086 94.7793 21.127 94.0234 21.127 93.0586C21.127 92.043 21.3242 91.2695 21.7188 90.7383C22.1133 90.207 22.6875 89.9414 23.4414 89.9414C24.6562 89.9414 25.3496 90.6523 25.5215 92.0742ZM27.1035 96V91.002H25.75V90.082H29.6406V91.002H28.3281V96H27.1035ZM30.2676 96V90.082H31.4922V92.3438H32.7812C33.375 92.3438 33.793 92.5254 34.0352 92.8887C34.2812 93.252 34.4043 93.6816 34.4043 94.1777C34.4043 95.3926 33.8359 96 32.6992 96H30.2676ZM31.4922 95.0742H32.4824C32.9629 95.0742 33.2031 94.7637 33.2031 94.1426C33.2031 93.4941 32.9629 93.1699 32.4824 93.1699H31.4922V95.0742ZM34.8965 96V90.082H36.1211V96H34.8965ZM41.8691 93.2227H38.5234C38.5234 94.0234 38.6309 94.5586 38.8457 94.8281C39.0645 95.0938 39.3379 95.2266 39.666 95.2266C40.2129 95.2266 40.5586 94.8574 40.7031 94.1191L41.8164 94.2656C41.5234 95.5195 40.793 96.1465 39.625 96.1465C38.9102 96.1465 38.3398 95.8906 37.9141 95.3789C37.4883 94.8672 37.2754 94.1172 37.2754 93.1289C37.2754 92.1133 37.4902 91.3281 37.9199 90.7734C38.3496 90.2188 38.9238 89.9414 39.6426 89.9414C40.1465 89.9414 40.5703 90.0801 40.9141 90.3574C41.2578 90.6348 41.5 91 41.6406 91.4531C41.7812 91.9023 41.8574 92.4922 41.8691 93.2227ZM40.6211 92.3965C40.6211 91.3535 40.2812 90.832 39.6016 90.832C38.9648 90.832 38.6152 91.3535 38.5527 92.3965H40.6211ZM45.1211 90.082H46.2461V91.0547C46.5547 90.3398 47.043 89.9824 47.7109 89.9824C48.3086 89.9824 48.791 90.2441 49.1582 90.7676C49.5254 91.2871 49.709 92.0293 49.709 92.9941C49.709 93.8574 49.541 94.5918 49.2051 95.1973C48.873 95.8027 48.3555 96.1055 47.6523 96.1055C47.0898 96.1055 46.6504 95.8652 46.334 95.3848V98.0039H45.1211V90.082ZM46.334 93.5273C46.334 93.9062 46.3613 94.2031 46.416 94.418C46.4746 94.6289 46.5918 94.8105 46.7676 94.9629C46.9434 95.1113 47.1426 95.1855 47.3652 95.1855C48.0605 95.1855 48.4082 94.4551 48.4082 92.9941C48.4082 91.5801 48.0684 90.873 47.3887 90.873C47.0879 90.873 46.8359 91.0176 46.6328 91.3066C46.4336 91.5957 46.334 92.0078 46.334 92.543V93.5273ZM55.1582 93.2227H51.8125C51.8125 94.0234 51.9199 94.5586 52.1348 94.8281C52.3535 95.0938 52.627 95.2266 52.9551 95.2266C53.502 95.2266 53.8477 94.8574 53.9922 94.1191L55.1055 94.2656C54.8125 95.5195 54.082 96.1465 52.9141 96.1465C52.1992 96.1465 51.6289 95.8906 51.2031 95.3789C50.7773 94.8672 50.5645 94.1172 50.5645 93.1289C50.5645 92.1133 50.7793 91.3281 51.209 90.7734C51.6387 90.2188 52.2129 89.9414 52.9316 89.9414C53.4355 89.9414 53.8594 90.0801 54.2031 90.3574C54.5469 90.6348 54.7891 91 54.9297 91.4531C55.0703 91.9023 55.1465 92.4922 55.1582 93.2227ZM53.9102 92.3965C53.9102 91.3535 53.5703 90.832 52.8906 90.832C52.2539 90.832 51.9043 91.3535 51.8418 92.3965H53.9102ZM56.1777 96V90.082H57.4023V95.0742H58.8613V90.082H60.0859V95.0742H61.5449V90.082H62.7695V96H56.1777ZM68.5176 93.2227H65.1719C65.1719 94.0234 65.2793 94.5586 65.4941 94.8281C65.7129 95.0938 65.9863 95.2266 66.3145 95.2266C66.8613 95.2266 67.207 94.8574 67.3516 94.1191L68.4648 94.2656C68.1719 95.5195 67.4414 96.1465 66.2734 96.1465C65.5586 96.1465 64.9883 95.8906 64.5625 95.3789C64.1367 94.8672 63.9238 94.1172 63.9238 93.1289C63.9238 92.1133 64.1387 91.3281 64.5684 90.7734C64.998 90.2188 65.5723 89.9414 66.291 89.9414C66.7949 89.9414 67.2188 90.0801 67.5625 90.3574C67.9062 90.6348 68.1484 91 68.2891 91.4531C68.4297 91.9023 68.5059 92.4922 68.5176 93.2227ZM67.2695 92.3965C67.2695 91.3535 66.9297 90.832 66.25 90.832C65.6133 90.832 65.2637 91.3535 65.2012 92.3965H67.2695ZM69.5371 96V90.082H70.7617V92.4316H72.5312V90.082H73.7559V96H72.5312V93.3516H70.7617V96H69.5371ZM76.4219 95.3965V96H75.1973V90.082H76.4219V92.6484C76.4219 93.2773 76.4082 93.6855 76.3809 93.873C76.5527 93.502 76.7598 93.123 77.002 92.7363L78.2031 90.8496V90.082H79.4277V96H78.2031V93.5801C78.2031 92.9277 78.2168 92.5195 78.2441 92.3555C78.0762 92.7773 77.8477 93.2109 77.5586 93.6562L76.4219 95.3965ZM83.5117 96V93.6387H82.4395L81.543 96H80.3008L81.4492 93.3867C80.8555 93.1094 80.5586 92.6191 80.5586 91.916C80.5586 91.3848 80.6797 90.9473 80.9219 90.6035C81.1641 90.2559 81.6543 90.082 82.3926 90.082H84.7363V96H83.5117ZM83.5117 92.8125V90.9082H82.5977C82.3047 90.9082 82.0918 90.9863 81.959 91.1426C81.8262 91.2988 81.7598 91.5527 81.7598 91.9043C81.7598 92.1699 81.8184 92.3887 81.9355 92.5605C82.0566 92.7285 82.3047 92.8125 82.6797 92.8125H83.5117ZM88.3926 95.0742L89.5879 90.082H91.4102L92.4824 95.0742H92.9219V97.3828H92.1074L91.9609 96H88.9141L88.7676 97.3828H87.9531V95.0742H88.3926ZM89.4648 95.0742H91.2637L90.4668 91.0371H90.3027L89.4648 95.0742ZM92.8574 96L94.498 90.082H95.916L97.4395 96H96.1562L95.1074 91.2773L93.9531 96H92.8574ZM100.668 96V93.6387H99.5957L98.6992 96H97.457L98.6055 93.3867C98.0117 93.1094 97.7148 92.6191 97.7148 91.916C97.7148 91.3848 97.8359 90.9473 98.0781 90.6035C98.3203 90.2559 98.8105 90.082 99.5488 90.082H101.893V96H100.668ZM100.668 92.8125V90.9082H99.7539C99.4609 90.9082 99.248 90.9863 99.1152 91.1426C98.9824 91.2988 98.916 91.5527 98.916 91.9043C98.916 92.1699 98.9746 92.3887 99.0918 92.5605C99.2129 92.7285 99.4609 92.8125 99.8359 92.8125H100.668ZM105.549 95.0742L106.744 90.082H108.566L109.639 95.0742H110.078V97.3828H109.264L109.117 96H106.07L105.924 97.3828H105.109V95.0742H105.549ZM106.621 95.0742H108.42L107.623 91.0371H107.459L106.621 95.0742ZM115.246 92.9824C115.246 95.0918 114.465 96.1465 112.902 96.1465C112.184 96.1465 111.617 95.8926 111.203 95.3848C110.793 94.873 110.588 94.0918 110.588 93.041C110.588 90.9746 111.369 89.9414 112.932 89.9414C113.643 89.9414 114.205 90.1934 114.619 90.6973C115.037 91.2012 115.246 91.9629 115.246 92.9824ZM113.951 93.041C113.951 92.209 113.857 91.6387 113.67 91.3301C113.486 91.0176 113.236 90.8613 112.92 90.8613C112.232 90.8613 111.889 91.5879 111.889 93.041C111.889 93.7832 111.969 94.332 112.129 94.6875C112.289 95.043 112.553 95.2207 112.92 95.2207C113.283 95.2207 113.545 95.041 113.705 94.6816C113.869 94.3184 113.951 93.7715 113.951 93.041ZM116.377 96V90.082H118.158L119.4 95.0449L120.607 90.082H122.277V96H121.164V91.166L119.881 96H118.627L117.367 91.166V96H116.377ZM124.809 91.7578L123.631 91.6113C123.709 91.084 123.951 90.6738 124.357 90.3809C124.768 90.0879 125.27 89.9414 125.863 89.9414C126.395 89.9414 126.818 90.0488 127.135 90.2637C127.455 90.4746 127.656 90.7266 127.738 91.0195C127.82 91.3125 127.861 91.7559 127.861 92.3496V94.3652C127.861 95.1816 127.896 95.7266 127.967 96H126.812C126.762 95.7852 126.736 95.457 126.736 95.0156C126.365 95.7695 125.811 96.1465 125.072 96.1465C124.572 96.1465 124.17 95.9941 123.865 95.6895C123.564 95.3809 123.414 94.9629 123.414 94.4355C123.414 93.791 123.635 93.2812 124.076 92.9062C124.521 92.5312 125.291 92.3438 126.385 92.3438C126.439 92.3438 126.525 92.3457 126.643 92.3496V92.1094C126.643 91.6875 126.578 91.3691 126.449 91.1543C126.324 90.9395 126.098 90.832 125.77 90.832C125.234 90.832 124.914 91.1406 124.809 91.7578ZM126.643 93.1172C126.486 93.1016 126.367 93.0938 126.285 93.0938C125.223 93.0938 124.691 93.5098 124.691 94.3418C124.691 94.9473 124.955 95.25 125.482 95.25C125.791 95.25 126.061 95.0859 126.291 94.7578C126.525 94.4297 126.643 93.9785 126.643 93.4043V93.1172Z" fill="#C1C1C1"/>
</svg>
