<svg width="131" height="66" viewBox="0 0 131 66" fill="none" xmlns="http://www.w3.org/2000/svg">
<path d="M14.6 65.64C9.8 65.64 6.38667 64.6267 4.36 62.6C2.33333 60.52 1.21333 57.1067 1 52.36C0.946667 50.4933 0.92 48.68 0.92 46.92C0.973333 45.16 1.08 43.32 1.24 41.4H9.4C9.29333 43.5867 9.21333 45.7467 9.16 47.88C9.16 50.0133 9.24 52.0133 9.4 53.88C9.50667 55.48 9.96 56.6533 10.76 57.4C11.6133 58.1467 12.8933 58.52 14.6 58.52C16.2533 58.52 17.4533 58.1467 18.2 57.4C19 56.6533 19.4533 55.48 19.56 53.88C19.72 52.0667 19.7733 50.44 19.72 49C19.72 47.5067 19.6667 45.7733 19.56 43.8C19.4533 42.2533 19.1333 40.92 18.6 39.8C18.0667 38.68 17.1067 37.9333 15.72 37.56L10.36 36.2C6.73333 35.2933 4.25333 33.72 2.92 31.48C1.58667 29.24 0.866667 26.2 0.76 22.36C0.76 20.92 0.76 19.4533 0.76 17.96C0.76 16.4667 0.786667 15 0.84 13.56C1 8.81333 2.09333 5.42666 4.12 3.4C6.2 1.37333 9.69333 0.359998 14.6 0.359998C19.1867 0.359998 22.52 1.37333 24.6 3.4C26.68 5.42666 27.8 8.81333 27.96 13.56C28.0133 14.8933 28.0133 16.52 27.96 18.44C27.96 20.3067 27.9333 22.2 27.88 24.12H19.56C19.6133 22.0933 19.64 20.0933 19.64 18.12C19.6933 16.0933 19.6667 14.0667 19.56 12.04C19.4533 9 17.7733 7.48 14.52 7.48C12.8667 7.48 11.64 7.85333 10.84 8.6C10.04 9.34666 9.58667 10.4933 9.48 12.04C9.32 13.7467 9.24 15.48 9.24 17.24C9.29333 18.9467 9.37333 20.6533 9.48 22.36C9.58667 24.12 9.90667 25.5067 10.44 26.52C11.0267 27.5333 12.0667 28.2267 13.56 28.6L18.36 29.72C22.1467 30.6267 24.7067 32.2533 26.04 34.6C27.3733 36.8933 28.12 39.96 28.28 43.8C28.3333 45.5067 28.3333 46.9733 28.28 48.2C28.28 49.4267 28.2533 50.8133 28.2 52.36C28.04 57.1067 26.92 60.52 24.84 62.6C22.76 64.6267 19.3467 65.64 14.6 65.64ZM51.8519 65V0.999999H66.6519L70.9719 26.2L73.0519 57.24H74.8119L76.7319 26.2L81.1319 0.999999H95.8519V65H87.2119V45.64L88.7319 8.68H86.8919L82.8919 46.36L79.1319 64.84H68.5719L64.8919 46.36L60.8919 8.68H59.0519L60.5719 45.88V65H51.8519ZM116.553 65.64C111.753 65.64 108.34 64.6267 106.313 62.6C104.286 60.52 103.166 57.1067 102.953 52.36C102.9 50.4933 102.873 48.68 102.873 46.92C102.926 45.16 103.033 43.32 103.193 41.4H111.353C111.246 43.5867 111.166 45.7467 111.113 47.88C111.113 50.0133 111.193 52.0133 111.353 53.88C111.46 55.48 111.913 56.6533 112.713 57.4C113.566 58.1467 114.846 58.52 116.553 58.52C118.206 58.52 119.406 58.1467 120.153 57.4C120.953 56.6533 121.406 55.48 121.513 53.88C121.673 52.0667 121.726 50.44 121.673 49C121.673 47.5067 121.62 45.7733 121.513 43.8C121.406 42.2533 121.086 40.92 120.553 39.8C120.02 38.68 119.06 37.9333 117.673 37.56L112.313 36.2C108.686 35.2933 106.206 33.72 104.873 31.48C103.54 29.24 102.82 26.2 102.713 22.36C102.713 20.92 102.713 19.4533 102.713 17.96C102.713 16.4667 102.74 15 102.793 13.56C102.953 8.81333 104.046 5.42666 106.073 3.4C108.153 1.37333 111.646 0.359998 116.553 0.359998C121.14 0.359998 124.473 1.37333 126.553 3.4C128.633 5.42666 129.753 8.81333 129.913 13.56C129.966 14.8933 129.966 16.52 129.913 18.44C129.913 20.3067 129.886 22.2 129.833 24.12H121.513C121.566 22.0933 121.593 20.0933 121.593 18.12C121.646 16.0933 121.62 14.0667 121.513 12.04C121.406 9 119.726 7.48 116.473 7.48C114.82 7.48 113.593 7.85333 112.793 8.6C111.993 9.34666 111.54 10.4933 111.433 12.04C111.273 13.7467 111.193 15.48 111.193 17.24C111.246 18.9467 111.326 20.6533 111.433 22.36C111.54 24.12 111.86 25.5067 112.393 26.52C112.98 27.5333 114.02 28.2267 115.513 28.6L120.313 29.72C124.1 30.6267 126.66 32.2533 127.993 34.6C129.326 36.8933 130.073 39.96 130.233 43.8C130.286 45.5067 130.286 46.9733 130.233 48.2C130.233 49.4267 130.206 50.8133 130.153 52.36C129.993 57.1067 128.873 60.52 126.793 62.6C124.713 64.6267 121.3 65.64 116.553 65.64Z" fill="#3A3A3A"/>
<path d="M35.7581 65V0.999999H44.4781V65H35.7581Z" fill="#DA5959"/>
</svg>
